<?xml version="1.0" encoding="UTF-8"?>
<!DOCTYPE svg PUBLIC "-//W3C//DTD SVG 1.1//EN" "http://www.w3.org/Graphics/SVG/1.1/DTD/svg11.dtd">
<svg xmlns="http://www.w3.org/2000/svg" version="1.1" width="1024px" height="1024px" style="shape-rendering:geometricPrecision; text-rendering:geometricPrecision; image-rendering:optimizeQuality; fill-rule:evenodd; clip-rule:evenodd" xmlns:xlink="http://www.w3.org/1999/xlink">
<g><path style="opacity:1" fill="#000000" d="M -0.5,-0.5 C 340.833,-0.5 682.167,-0.5 1023.5,-0.5C 1023.5,340.833 1023.5,682.167 1023.5,1023.5C 682.167,1023.5 340.833,1023.5 -0.5,1023.5C -0.5,682.167 -0.5,340.833 -0.5,-0.5 Z"/></g>
<g><path style="opacity:1" fill="#32b5fa" d="M 384.5,467.5 C 469.167,467.5 553.833,467.5 638.5,467.5C 639.499,384.002 639.833,300.335 639.5,216.5C 684.5,216.5 729.5,216.5 774.5,216.5C 774.5,430.167 774.5,643.833 774.5,857.5C 729.5,857.5 684.5,857.5 639.5,857.5C 639.833,764.998 639.499,672.665 638.5,580.5C 553.833,580.5 469.167,580.5 384.5,580.5C 383.501,672.665 383.167,764.998 383.5,857.5C 338.5,857.5 293.5,857.5 248.5,857.5C 248.5,643.833 248.5,430.167 248.5,216.5C 293.5,216.5 338.5,216.5 383.5,216.5C 383.167,300.335 383.501,384.002 384.5,467.5 Z"/></g>
<g><path style="opacity:1" fill="#2072a0" d="M 384.5,467.5 C 383.501,384.002 383.167,300.335 383.5,216.5C 338.5,216.5 293.5,216.5 248.5,216.5C 248.5,430.167 248.5,643.833 248.5,857.5C 248.5,857.833 248.5,858.167 248.5,858.5C 247.5,644.334 247.167,430.001 247.5,215.5C 293.167,215.5 338.833,215.5 384.5,215.5C 384.5,299.5 384.5,383.5 384.5,467.5 Z"/></g>
<g><path style="opacity:1" fill="#2587bf" d="M 774.5,216.5 C 729.5,216.5 684.5,216.5 639.5,216.5C 639.833,300.335 639.499,384.002 638.5,467.5C 638.5,383.5 638.5,299.5 638.5,215.5C 684.003,215.168 729.336,215.501 774.5,216.5 Z"/></g>
<g><path style="opacity:1" fill="#298bc4" d="M 384.5,580.5 C 384.5,673.167 384.5,765.833 384.5,858.5C 339.167,858.5 293.833,858.5 248.5,858.5C 248.5,858.167 248.5,857.833 248.5,857.5C 293.5,857.5 338.5,857.5 383.5,857.5C 383.167,764.998 383.501,672.665 384.5,580.5 Z"/></g>
<g><path style="opacity:1" fill="#2587bf" d="M 638.5,580.5 C 639.499,672.665 639.833,764.998 639.5,857.5C 684.5,857.5 729.5,857.5 774.5,857.5C 729.336,858.499 684.003,858.832 638.5,858.5C 638.5,765.833 638.5,673.167 638.5,580.5 Z"/></g>
</svg>
